<svg width="140" height="26" fill="none" xmlns="http://www.w3.org/2000/svg"><g clip-path="url(#a)" stroke="#52483E" stroke-width="2.438" stroke-linecap="round" stroke-linejoin="round"><path d="M4.875 9.75v6.5m4.063-13v19.5M13 6.5v13m4.063-9.75v6.5m4.062-8.125v9.75"/></g><path d="m36.609 20-3.019-5.331h-1.293V20h-2.744V6.32h5.135c1.058 0 1.96.189 2.705.568.744.365 1.3.869 1.666 1.509.379.627.568 1.333.568 2.117 0 .901-.261 1.718-.784 2.45-.523.718-1.3 1.215-2.332 1.49L39.784 20h-3.175Zm-4.312-7.39h2.293c.745 0 1.3-.176 1.666-.528.366-.366.549-.87.549-1.51 0-.627-.183-1.11-.55-1.45-.365-.353-.92-.53-1.665-.53h-2.293v4.019Zm19.906 1.726c0 .392-.026.744-.079 1.058h-7.938c.066.784.34 1.398.824 1.842.483.445 1.078.667 1.783.667 1.02 0 1.745-.438 2.176-1.313h2.96a4.996 4.996 0 0 1-1.804 2.587c-.888.666-1.98 1-3.273 1-1.045 0-1.986-.23-2.822-.687a5.05 5.05 0 0 1-1.94-1.98c-.458-.849-.687-1.829-.687-2.94 0-1.123.229-2.11.686-2.959a4.787 4.787 0 0 1 1.921-1.96c.823-.457 1.77-.686 2.842-.686 1.032 0 1.954.222 2.764.667a4.597 4.597 0 0 1 1.9 1.9c.458.81.687 1.745.687 2.804Zm-2.842-.784c-.013-.706-.268-1.268-.765-1.686-.496-.431-1.104-.647-1.822-.647-.68 0-1.255.21-1.725.627-.457.405-.738.974-.843 1.706h5.155Zm9 6.624c-.889 0-1.686-.156-2.391-.47-.706-.327-1.268-.764-1.686-1.313a3.342 3.342 0 0 1-.666-1.823h2.763c.053.418.255.764.608 1.039.366.274.817.411 1.352.411.523 0 .928-.104 1.215-.313.301-.21.451-.477.451-.804 0-.353-.183-.614-.548-.784-.353-.183-.922-.379-1.706-.588-.81-.196-1.476-.398-1.999-.607-.51-.21-.954-.53-1.333-.96-.365-.432-.548-1.014-.548-1.745 0-.601.17-1.15.51-1.647.352-.496.848-.888 1.489-1.176.653-.287 1.417-.43 2.293-.43 1.294 0 2.326.326 3.097.98.77.64 1.195 1.508 1.274 2.606h-2.627a1.383 1.383 0 0 0-.548-1.02c-.314-.26-.739-.391-1.274-.391-.497 0-.883.091-1.157.274a.881.881 0 0 0-.392.765c0 .366.183.646.549.842.366.183.934.373 1.705.569.784.196 1.43.398 1.94.607.51.21.948.536 1.314.98.379.432.575 1.006.588 1.725a2.84 2.84 0 0 1-.53 1.686c-.34.496-.836.888-1.49 1.176-.64.274-1.39.411-2.253.411Zm11.347 0c-1.046 0-1.986-.228-2.823-.686a5.146 5.146 0 0 1-1.98-1.98c-.47-.849-.705-1.829-.705-2.94 0-1.11.242-2.09.725-2.94a5.106 5.106 0 0 1 2.02-1.96c.849-.47 1.796-.705 2.841-.705 1.046 0 1.993.235 2.842.706a4.975 4.975 0 0 1 2 1.96c.496.85.744 1.83.744 2.94 0 1.11-.255 2.09-.764 2.94a5.208 5.208 0 0 1-2.039 1.98c-.849.457-1.803.685-2.861.685Zm0-2.39c.496 0 .96-.118 1.391-.354a2.681 2.681 0 0 0 1.059-1.097c.261-.484.392-1.072.392-1.764 0-1.032-.275-1.823-.823-2.372a2.627 2.627 0 0 0-1.98-.843c-.784 0-1.444.281-1.98.843-.522.549-.784 1.34-.784 2.372 0 1.032.255 1.83.765 2.391.522.549 1.176.823 1.96.823Zm13.694-8.801c1.294 0 2.34.411 3.136 1.235.797.81 1.196 1.946 1.196 3.41V20H84.99v-5.998c0-.862-.216-1.522-.647-1.98-.431-.47-1.02-.705-1.764-.705-.758 0-1.359.235-1.803.706-.431.457-.647 1.117-.647 1.98V20h-2.744V9.142h2.744v1.352a3.72 3.72 0 0 1 1.392-1.098 4.311 4.311 0 0 1 1.881-.411Zm6.236 5.547c0-1.098.215-2.072.646-2.92.445-.85 1.04-1.504 1.784-1.96a4.8 4.8 0 0 1 2.528-.687c.81 0 1.516.164 2.117.49.614.327 1.104.739 1.47 1.235V9.142h2.764V20h-2.764v-1.588c-.353.51-.843.935-1.47 1.274-.614.327-1.326.49-2.136.49a4.667 4.667 0 0 1-2.509-.705c-.745-.47-1.34-1.13-1.784-1.98-.43-.862-.646-1.849-.646-2.96Zm8.545.039c0-.667-.13-1.235-.392-1.705a2.681 2.681 0 0 0-1.058-1.098 2.775 2.775 0 0 0-1.431-.392c-.51 0-.98.124-1.411.372-.431.249-.784.615-1.059 1.098-.26.47-.392 1.032-.392 1.686 0 .653.131 1.228.392 1.724a3.02 3.02 0 0 0 1.059 1.118 2.74 2.74 0 0 0 1.411.392c.51 0 .987-.124 1.43-.373a2.85 2.85 0 0 0 1.06-1.097c.26-.484.391-1.059.391-1.725Zm11.461-5.586c1.294 0 2.339.411 3.136 1.235.797.81 1.196 1.946 1.196 3.41V20h-2.744v-5.998c0-.862-.216-1.522-.647-1.98-.431-.47-1.019-.705-1.764-.705-.758 0-1.359.235-1.803.706-.432.457-.647 1.117-.647 1.98V20h-2.744V9.142h2.744v1.352c.366-.47.83-.836 1.391-1.098a4.315 4.315 0 0 1 1.882-.411Zm6.235 5.586c0-1.124.229-2.104.686-2.94a4.822 4.822 0 0 1 1.902-1.96c.81-.47 1.737-.706 2.783-.706 1.346 0 2.456.34 3.332 1.02.888.666 1.483 1.607 1.783 2.822h-2.959a2.095 2.095 0 0 0-.804-1.098c-.366-.274-.823-.411-1.372-.411-.784 0-1.404.287-1.862.862-.457.562-.686 1.365-.686 2.41 0 1.033.229 1.837.686 2.412.458.562 1.078.842 1.862.842 1.111 0 1.836-.496 2.176-1.49h2.959c-.3 1.177-.895 2.111-1.783 2.804-.889.692-1.999 1.038-3.332 1.038-1.046 0-1.973-.228-2.783-.686a4.988 4.988 0 0 1-1.902-1.96c-.457-.849-.686-1.836-.686-2.96Zm22.591-.235c0 .392-.026.744-.079 1.058h-7.938c.066.784.34 1.398.823 1.842.484.445 1.078.667 1.784.667 1.019 0 1.744-.438 2.176-1.313h2.959c-.313 1.045-.914 1.907-1.803 2.587-.888.666-1.98 1-3.273 1-1.045 0-1.986-.23-2.823-.687a5.047 5.047 0 0 1-1.94-1.98c-.457-.849-.686-1.829-.686-2.94 0-1.123.229-2.11.686-2.959a4.786 4.786 0 0 1 1.921-1.96c.823-.457 1.77-.686 2.842-.686 1.032 0 1.953.222 2.763.667a4.599 4.599 0 0 1 1.902 1.9c.457.81.686 1.745.686 2.804Zm-2.842-.784c-.013-.706-.268-1.268-.765-1.686-.496-.431-1.104-.647-1.823-.647-.679 0-1.254.21-1.724.627-.458.405-.739.974-.843 1.706h5.155Z" fill="#52483E"/><defs><clipPath id="a"><path fill="#fff" d="M0 0h26v26H0z"/></clipPath></defs></svg>