<svg width="25" height="19" viewBox="0 0 25 19" fill="none" xmlns="http://www.w3.org/2000/svg">
<path d="M8.53125 11.3809C9.2043 11.3809 9.75 10.8352 9.75 10.1622C9.75 9.48906 9.2043 8.94336 8.53125 8.94336C7.85815 8.94336 7.3125 9.48906 7.3125 10.1622C7.3125 10.8352 7.85815 11.3809 8.53125 11.3809Z" fill="#52483E"/>
<path d="M15.8437 11.3809C16.5168 11.3809 17.0625 10.8352 17.0625 10.1622C17.0625 9.48906 16.5168 8.94336 15.8437 8.94336C15.1707 8.94336 14.625 9.48906 14.625 10.1622C14.625 10.8352 15.1707 11.3809 15.8437 11.3809Z" fill="#52483E"/>
<path d="M14.7713 3.42718L15.2791 1.43351C15.3298 1.23292 15.4542 1.05881 15.6276 0.945869C15.8009 0.832929 16.0105 0.789469 16.2145 0.824129L19.8748 1.42741C20.0329 1.45308 20.18 1.52445 20.298 1.63274C20.4161 1.74102 20.4998 1.88148 20.539 2.03679L23.5381 13.8557C23.5839 14.0415 23.5627 14.2375 23.4782 14.4091C23.3936 14.5808 23.2512 14.7171 23.076 14.7941L16.2713 17.8105C16.1681 17.8574 16.0563 17.8825 15.9429 17.8844C15.8295 17.8863 15.717 17.8648 15.6122 17.8214C15.5075 17.778 15.4127 17.7135 15.334 17.632C15.2552 17.5504 15.194 17.4536 15.1541 17.3474L14.1172 14.5351" stroke="#52483E" stroke-width="1.625" stroke-linecap="round" stroke-linejoin="round"/>
<path d="M9.603 3.42718L9.0952 1.43351C9.04448 1.23292 8.92004 1.05881 8.74669 0.945869C8.57333 0.832929 8.36378 0.789469 8.15981 0.824129L4.49949 1.42741C4.34139 1.45308 4.19425 1.52445 4.07622 1.63274C3.9582 1.74102 3.87444 1.88148 3.83527 2.03679L0.836129 13.8536C0.790319 14.0394 0.811549 14.2354 0.896079 14.4071C0.980619 14.5788 1.12304 14.7151 1.29824 14.7921L8.10293 17.8085C8.20619 17.8553 8.31797 17.8805 8.43135 17.8824C8.54474 17.8843 8.65729 17.8628 8.76205 17.8194C8.8668 17.776 8.96151 17.7115 9.04031 17.6299C9.11911 17.5484 9.18031 17.4515 9.2201 17.3453L10.2571 14.5351" stroke="#52483E" stroke-width="1.625" stroke-linecap="round" stroke-linejoin="round"/>
<path d="M7.3125 3.89694C8.90097 3.46347 10.541 3.24788 12.1875 3.25609C13.834 3.24788 15.474 3.46347 17.0625 3.89694" stroke="#52483E" stroke-width="1.625" stroke-linecap="round" stroke-linejoin="round"/>
<path d="M17.0625 13.9902C15.474 14.4236 13.834 14.6392 12.1875 14.631C10.541 14.6392 8.90097 14.4236 7.3125 13.9902" stroke="#52483E" stroke-width="1.625" stroke-linecap="round" stroke-linejoin="round"/>
</svg>
