<svg width="140" height="26" viewBox="0 0 140 26" fill="none" xmlns="http://www.w3.org/2000/svg">
<g clip-path="url(#clip0_3850_10025)">
<path d="M4.875 9.75V16.25" stroke="#52483E" stroke-width="2.4375" stroke-linecap="round" stroke-linejoin="round"/>
<path d="M8.9375 3.25V22.75" stroke="#52483E" stroke-width="2.4375" stroke-linecap="round" stroke-linejoin="round"/>
<path d="M13 6.5V19.5" stroke="#52483E" stroke-width="2.4375" stroke-linecap="round" stroke-linejoin="round"/>
<path d="M17.0625 9.75V16.25" stroke="#52483E" stroke-width="2.4375" stroke-linecap="round" stroke-linejoin="round"/>
<path d="M21.125 8.125V17.875" stroke="#52483E" stroke-width="2.4375" stroke-linecap="round" stroke-linejoin="round"/>
</g>
<path d="M36.6086 20L33.5902 14.6688H32.2966V20H29.5526V6.3192H34.6878C35.7462 6.3192 36.6478 6.50867 37.3926 6.8876C38.1374 7.25347 38.6927 7.75653 39.0586 8.3968C39.4375 9.024 39.627 9.7296 39.627 10.5136C39.627 11.4152 39.3657 12.2319 38.843 12.9636C38.3203 13.6823 37.5429 14.1788 36.5106 14.4532L39.7838 20H36.6086ZM32.2966 12.6108H34.5898C35.3346 12.6108 35.8899 12.4344 36.2558 12.0816C36.6217 11.7157 36.8046 11.2127 36.8046 10.5724C36.8046 9.9452 36.6217 9.46173 36.2558 9.122C35.8899 8.7692 35.3346 8.5928 34.5898 8.5928H32.2966V12.6108ZM52.2028 14.3356C52.2028 14.7276 52.1767 15.0804 52.1244 15.394H44.1864C44.2518 16.178 44.5262 16.7921 45.0096 17.2364C45.4931 17.6807 46.0876 17.9028 46.7932 17.9028C47.8124 17.9028 48.5376 17.4651 48.9688 16.5896H51.9284C51.6148 17.6349 51.0138 18.4973 50.1252 19.1768C49.2367 19.8432 48.1456 20.1764 46.852 20.1764C45.8067 20.1764 44.8659 19.9477 44.0296 19.4904C43.2064 19.02 42.5596 18.3601 42.0892 17.5108C41.6319 16.6615 41.4032 15.6815 41.4032 14.5708C41.4032 13.4471 41.6319 12.4605 42.0892 11.6112C42.5466 10.7619 43.1868 10.1085 44.01 9.6512C44.8332 9.19387 45.7806 8.9652 46.852 8.9652C47.8843 8.9652 48.8055 9.18733 49.6156 9.6316C50.4388 10.0759 51.0726 10.7096 51.5168 11.5328C51.9742 12.3429 52.2028 13.2772 52.2028 14.3356ZM49.3608 13.5516C49.3478 12.846 49.093 12.2841 48.5964 11.866C48.0999 11.4348 47.4923 11.2192 46.7736 11.2192C46.0942 11.2192 45.5192 11.4283 45.0488 11.8464C44.5915 12.2515 44.3106 12.8199 44.206 13.5516H49.3608ZM58.3609 20.1764C57.4724 20.1764 56.6753 20.0196 55.9697 19.706C55.2641 19.3793 54.7023 18.9416 54.2841 18.3928C53.8791 17.844 53.6569 17.2364 53.6177 16.57H56.3813C56.4336 16.9881 56.6361 17.3344 56.9889 17.6088C57.3548 17.8832 57.8056 18.0204 58.3413 18.0204C58.864 18.0204 59.2691 17.9159 59.5565 17.7068C59.8571 17.4977 60.0073 17.2299 60.0073 16.9032C60.0073 16.5504 59.8244 16.2891 59.4585 16.1192C59.1057 15.9363 58.5373 15.7403 57.7533 15.5312C56.9432 15.3352 56.2768 15.1327 55.7541 14.9236C55.2445 14.7145 54.8003 14.3944 54.4213 13.9632C54.0555 13.532 53.8725 12.9505 53.8725 12.2188C53.8725 11.6177 54.0424 11.0689 54.3821 10.5724C54.7349 10.0759 55.2315 9.68387 55.8717 9.3964C56.5251 9.10893 57.2895 8.9652 58.1649 8.9652C59.4585 8.9652 60.4908 9.29187 61.2617 9.9452C62.0327 10.5855 62.4573 11.4544 62.5357 12.552H59.9093C59.8701 12.1208 59.6872 11.7811 59.3605 11.5328C59.0469 11.2715 58.6223 11.1408 58.0865 11.1408C57.59 11.1408 57.2045 11.2323 56.9301 11.4152C56.6688 11.5981 56.5381 11.8529 56.5381 12.1796C56.5381 12.5455 56.7211 12.8264 57.0869 13.0224C57.4528 13.2053 58.0212 13.3948 58.7921 13.5908C59.5761 13.7868 60.2229 13.9893 60.7325 14.1984C61.2421 14.4075 61.6799 14.7341 62.0457 15.1784C62.4247 15.6096 62.6207 16.1845 62.6337 16.9032C62.6337 17.5304 62.4573 18.0923 62.1045 18.5888C61.7648 19.0853 61.2683 19.4773 60.6149 19.7648C59.9747 20.0392 59.2233 20.1764 58.3609 20.1764ZM69.7078 20.1764C68.6625 20.1764 67.7217 19.9477 66.8854 19.4904C66.0491 19.02 65.3893 18.3601 64.9058 17.5108C64.4354 16.6615 64.2002 15.6815 64.2002 14.5708C64.2002 13.4601 64.4419 12.4801 64.9254 11.6308C65.4219 10.7815 66.0949 10.1281 66.9442 9.6708C67.7935 9.2004 68.7409 8.9652 69.7862 8.9652C70.8315 8.9652 71.7789 9.2004 72.6282 9.6708C73.4775 10.1281 74.1439 10.7815 74.6274 11.6308C75.1239 12.4801 75.3722 13.4601 75.3722 14.5708C75.3722 15.6815 75.1174 16.6615 74.6078 17.5108C74.1113 18.3601 73.4318 19.02 72.5694 19.4904C71.7201 19.9477 70.7662 20.1764 69.7078 20.1764ZM69.7078 17.7852C70.2043 17.7852 70.6682 17.6676 71.0994 17.4324C71.5437 17.1841 71.8965 16.8183 72.1578 16.3348C72.4191 15.8513 72.5498 15.2633 72.5498 14.5708C72.5498 13.5385 72.2754 12.748 71.7266 12.1992C71.1909 11.6373 70.531 11.3564 69.747 11.3564C68.963 11.3564 68.3031 11.6373 67.7674 12.1992C67.2447 12.748 66.9834 13.5385 66.9834 14.5708C66.9834 15.6031 67.2382 16.4001 67.7478 16.962C68.2705 17.5108 68.9238 17.7852 69.7078 17.7852ZM83.4022 8.9848C84.6958 8.9848 85.7411 9.3964 86.5382 10.2196C87.3353 11.0297 87.7338 12.1665 87.7338 13.63V20H84.9898V14.0024C84.9898 13.14 84.7742 12.4801 84.343 12.0228C83.9118 11.5524 83.3238 11.3172 82.579 11.3172C81.8211 11.3172 81.2201 11.5524 80.7758 12.0228C80.3446 12.4801 80.129 13.14 80.129 14.0024V20H77.385V9.1416H80.129V10.494C80.4949 10.0236 80.9587 9.65773 81.5206 9.3964C82.0955 9.122 82.7227 8.9848 83.4022 8.9848ZM89.6376 14.5316C89.6376 13.434 89.8532 12.4605 90.2844 11.6112C90.7287 10.7619 91.3232 10.1085 92.068 9.6512C92.8259 9.19387 93.6687 8.9652 94.5964 8.9652C95.4066 8.9652 96.1122 9.12853 96.7132 9.4552C97.3274 9.78187 97.8174 10.1935 98.1832 10.69V9.1416H100.947V20H98.1832V18.4124C97.8304 18.922 97.3404 19.3467 96.7132 19.6864C96.0991 20.0131 95.387 20.1764 94.5768 20.1764C93.6622 20.1764 92.8259 19.9412 92.068 19.4708C91.3232 19.0004 90.7287 18.3405 90.2844 17.4912C89.8532 16.6288 89.6376 15.6423 89.6376 14.5316ZM98.1832 14.5708C98.1832 13.9044 98.0526 13.336 97.7912 12.8656C97.5299 12.3821 97.1771 12.0163 96.7328 11.768C96.2886 11.5067 95.8116 11.376 95.302 11.376C94.7924 11.376 94.322 11.5001 93.8908 11.7484C93.4596 11.9967 93.1068 12.3625 92.8324 12.846C92.5711 13.3164 92.4404 13.8783 92.4404 14.5316C92.4404 15.1849 92.5711 15.7599 92.8324 16.2564C93.1068 16.7399 93.4596 17.1123 93.8908 17.3736C94.3351 17.6349 94.8055 17.7656 95.302 17.7656C95.8116 17.7656 96.2886 17.6415 96.7328 17.3932C97.1771 17.1319 97.5299 16.766 97.7912 16.2956C98.0526 15.8121 98.1832 15.2372 98.1832 14.5708ZM109.644 8.9848C110.938 8.9848 111.983 9.3964 112.78 10.2196C113.577 11.0297 113.976 12.1665 113.976 13.63V20H111.232V14.0024C111.232 13.14 111.016 12.4801 110.585 12.0228C110.154 11.5524 109.566 11.3172 108.821 11.3172C108.063 11.3172 107.462 11.5524 107.018 12.0228C106.586 12.4801 106.371 13.14 106.371 14.0024V20H103.627V9.1416H106.371V10.494C106.737 10.0236 107.201 9.65773 107.762 9.3964C108.337 9.122 108.965 8.9848 109.644 8.9848ZM115.879 14.5708C115.879 13.4471 116.108 12.4671 116.565 11.6308C117.023 10.7815 117.656 10.1281 118.467 9.6708C119.277 9.2004 120.204 8.9652 121.25 8.9652C122.596 8.9652 123.706 9.30493 124.582 9.9844C125.47 10.6508 126.065 11.5916 126.365 12.8068H123.406C123.249 12.3364 122.981 11.9705 122.602 11.7092C122.236 11.4348 121.779 11.2976 121.23 11.2976C120.446 11.2976 119.826 11.5851 119.368 12.16C118.911 12.7219 118.682 13.5255 118.682 14.5708C118.682 15.6031 118.911 16.4067 119.368 16.9816C119.826 17.5435 120.446 17.8244 121.23 17.8244C122.341 17.8244 123.066 17.3279 123.406 16.3348H126.365C126.065 17.5108 125.47 18.4451 124.582 19.1376C123.693 19.8301 122.583 20.1764 121.25 20.1764C120.204 20.1764 119.277 19.9477 118.467 19.4904C117.656 19.02 117.023 18.3667 116.565 17.5304C116.108 16.6811 115.879 15.6945 115.879 14.5708ZM138.47 14.3356C138.47 14.7276 138.444 15.0804 138.391 15.394H130.453C130.519 16.178 130.793 16.7921 131.276 17.2364C131.76 17.6807 132.354 17.9028 133.06 17.9028C134.079 17.9028 134.804 17.4651 135.236 16.5896H138.195C137.882 17.6349 137.281 18.4973 136.392 19.1768C135.504 19.8432 134.412 20.1764 133.119 20.1764C132.074 20.1764 131.133 19.9477 130.296 19.4904C129.473 19.02 128.826 18.3601 128.356 17.5108C127.899 16.6615 127.67 15.6815 127.67 14.5708C127.67 13.4471 127.899 12.4605 128.356 11.6112C128.813 10.7619 129.454 10.1085 130.277 9.6512C131.1 9.19387 132.047 8.9652 133.119 8.9652C134.151 8.9652 135.072 9.18733 135.882 9.6316C136.706 10.0759 137.339 10.7096 137.784 11.5328C138.241 12.3429 138.47 13.2772 138.47 14.3356ZM135.628 13.5516C135.615 12.846 135.36 12.2841 134.863 11.866C134.367 11.4348 133.759 11.2192 133.04 11.2192C132.361 11.2192 131.786 11.4283 131.316 11.8464C130.858 12.2515 130.577 12.8199 130.473 13.5516H135.628Z" fill="#52483E"/>
<defs>
<clipPath id="clip0_3850_10025">
<rect width="26" height="26" fill="white"/>
</clipPath>
</defs>
</svg>
