<svg width="25" height="19" fill="none" xmlns="http://www.w3.org/2000/svg"><path d="M8.531 11.38a1.219 1.219 0 1 0 0-2.437 1.219 1.219 0 0 0 0 2.438Zm7.313 0a1.219 1.219 0 1 0 0-2.437 1.219 1.219 0 0 0 0 2.438Z" fill="#52483E"/><path d="m14.771 3.427.508-1.993a.822.822 0 0 1 .936-.61l3.66.603a.82.82 0 0 1 .664.61l3 11.819a.813.813 0 0 1-.463.938l-6.805 3.017a.827.827 0 0 1-1.117-.464l-1.037-2.812M9.603 3.427l-.508-1.993a.823.823 0 0 0-.935-.61l-3.66.603a.82.82 0 0 0-.665.61L.836 13.854a.813.813 0 0 0 .462.938l6.805 3.016a.83.83 0 0 0 1.117-.463l1.037-2.81" stroke="#52483E" stroke-width="1.625" stroke-linecap="round" stroke-linejoin="round"/><path d="M7.313 3.897a18.174 18.174 0 0 1 4.875-.64 18.174 18.174 0 0 1 4.874.64m.001 10.093a18.177 18.177 0 0 1-4.875.641 18.177 18.177 0 0 1-4.876-.64" stroke="#52483E" stroke-width="1.625" stroke-linecap="round" stroke-linejoin="round"/></svg>